<?xml version="1.0" encoding="UTF-8" standalone="no"?>
<!DOCTYPE svg PUBLIC "-//W3C//DTD SVG 1.1//EN" "http://www.w3.org/Graphics/SVG/1.1/DTD/svg11.dtd"
[
<!ATTLIST g
  xmlns:vectornator CDATA #FIXED "http://vectornator.io"
  vectornator:layerName CDATA #IMPLIED >
<!ATTLIST g
  xmlns:vectornator CDATA #FIXED "http://vectornator.io"
  vectornator:mask CDATA #IMPLIED >
<!ATTLIST text
  xmlns:vectornator CDATA #FIXED "http://vectornator.io"
  vectornator:width CDATA #IMPLIED >
<!ATTLIST text
  xmlns:vectornator CDATA #FIXED "http://vectornator.io"
  vectornator:text CDATA #IMPLIED >

<!ATTLIST path
  xmlns:vectornator CDATA #FIXED "http://vectornator.io"
  vectornator:blendMode CDATA #IMPLIED >
<!ATTLIST path
  xmlns:vectornator CDATA #FIXED "http://vectornator.io"
  vectornator:shadowColor CDATA #IMPLIED >
<!ATTLIST path
  xmlns:vectornator CDATA #FIXED "http://vectornator.io"
  vectornator:shadowOpacity CDATA #IMPLIED >
<!ATTLIST path
  xmlns:vectornator CDATA #FIXED "http://vectornator.io"
  vectornator:shadowRadius CDATA #IMPLIED >
<!ATTLIST path
  xmlns:vectornator CDATA #FIXED "http://vectornator.io"
  vectornator:shadowOffset CDATA #IMPLIED >
<!ATTLIST path
  xmlns:vectornator CDATA #FIXED "http://vectornator.io"
  vectornator:shadowAngle CDATA #IMPLIED >

<!ATTLIST image
  xmlns:vectornator CDATA #FIXED "http://vectornator.io"
  vectornator:blendMode CDATA #IMPLIED >
<!ATTLIST image
  xmlns:vectornator CDATA #FIXED "http://vectornator.io"
  vectornator:shadowColor CDATA #IMPLIED >
<!ATTLIST image
  xmlns:vectornator CDATA #FIXED "http://vectornator.io"
  vectornator:shadowOpacity CDATA #IMPLIED >
<!ATTLIST image
  xmlns:vectornator CDATA #FIXED "http://vectornator.io"
  vectornator:shadowRadius CDATA #IMPLIED >
<!ATTLIST image
  xmlns:vectornator CDATA #FIXED "http://vectornator.io"
  vectornator:shadowOffset CDATA #IMPLIED >
<!ATTLIST image
  xmlns:vectornator CDATA #FIXED "http://vectornator.io"
  vectornator:shadowAngle CDATA #IMPLIED >

<!ATTLIST g
  xmlns:vectornator CDATA #FIXED "http://vectornator.io"
  vectornator:blendMode CDATA #IMPLIED >
<!ATTLIST g
  xmlns:vectornator CDATA #FIXED "http://vectornator.io"
  vectornator:shadowColor CDATA #IMPLIED >
<!ATTLIST g
  xmlns:vectornator CDATA #FIXED "http://vectornator.io"
  vectornator:shadowOpacity CDATA #IMPLIED >
<!ATTLIST g
  xmlns:vectornator CDATA #FIXED "http://vectornator.io"
  vectornator:shadowRadius CDATA #IMPLIED >
<!ATTLIST g
  xmlns:vectornator CDATA #FIXED "http://vectornator.io"
  vectornator:shadowOffset CDATA #IMPLIED >
<!ATTLIST g
  xmlns:vectornator CDATA #FIXED "http://vectornator.io"
  vectornator:shadowAngle CDATA #IMPLIED >

<!ENTITY % SVG.filter.extra.content  "| feDropShadow" >
<!ELEMENT feDropShadow EMPTY>
<!ATTLIST feDropShadow
  xmlns:svg CDATA #FIXED "http://www.w3.org/Graphics/SVG/1.1/DTD/svg11.dtd"
  dx CDATA #IMPLIED>
<!ATTLIST feDropShadow
  xmlns:svg CDATA #FIXED "http://www.w3.org/Graphics/SVG/1.1/DTD/svg11.dtd"
  dy CDATA #IMPLIED>
<!ATTLIST feDropShadow
  xmlns:svg CDATA #FIXED "http://www.w3.org/Graphics/SVG/1.1/DTD/svg11.dtd"
  stdDeviation CDATA #IMPLIED>
<!ATTLIST feDropShadow
  xmlns:svg CDATA #FIXED "http://www.w3.org/Graphics/SVG/1.1/DTD/svg11.dtd"
  flood-opacity CDATA #IMPLIED>
<!ATTLIST feDropShadow
  xmlns:svg CDATA #FIXED "http://www.w3.org/Graphics/SVG/1.1/DTD/svg11.dtd"
  in CDATA #IMPLIED>
<!ATTLIST feDropShadow
  xmlns:svg CDATA #FIXED "http://www.w3.org/Graphics/SVG/1.1/DTD/svg11.dtd"
  result CDATA #IMPLIED>
<!ATTLIST feDropShadow
  xmlns:svg CDATA #FIXED "http://www.w3.org/Graphics/SVG/1.1/DTD/svg11.dtd"
  flood-color CDATA #IMPLIED>
]
>
<!-- Created with Vectornator (http://vectornator.io/) -->
<svg height="100%" stroke-miterlimit="10" style="fill-rule:nonzero;clip-rule:evenodd;stroke-linecap:round;stroke-linejoin:round;" version="1.1" viewBox="0 0 512 512" width="100%" xml:space="preserve" xmlns="http://www.w3.org/2000/svg" xmlns:vectornator="http://vectornator.io" xmlns:xlink="http://www.w3.org/1999/xlink">
<defs/>
<g id="Layer-1" vectornator:layerName="Layer 1">
<g opacity="1">
<path d="M429.962 307.996C429.455 308.503 429.252 313.526 429.353 323.064C429.455 332.601 429.759 337.523 430.267 337.827C430.774 338.131 433.361 338.233 438.029 338.131C442.696 338.03 445.182 337.776 445.487 337.37C445.791 336.965 445.943 332.043 445.943 322.607C445.943 313.171 445.74 308.249 445.334 307.844C444.929 307.438 442.392 307.235 437.724 307.235C433.057 307.235 430.47 307.488 429.962 307.996Z" fill="#000000" fill-rule="evenodd" opacity="1" stroke="#ffffff" stroke-linecap="round" stroke-linejoin="round" stroke-width="1"/>
<path d="M262.547 41.6371C258.793 41.5356 254.37 41.7548 249.297 42.2621C244.224 42.7694 239.097 43.7166 233.922 45.1371C228.747 46.5576 195.763 59.7701 134.984 84.7309C74.2059 109.692 42.5523 122.873 40.0156 124.293C37.479 125.714 35.3656 127.232 33.6406 128.856C31.9157 130.479 30.6399 132.107 29.8281 133.731C29.0164 135.354 28.6094 136.873 28.6094 138.293C28.6094 139.714 28.8285 140.935 29.2344 141.95C29.6402 142.964 30.2899 143.966 31.2031 144.981C32.1163 145.996 34.0966 147.271 37.1406 148.793C40.1846 150.315 73.5212 164.123 137.141 190.2C200.76 216.276 234.285 229.755 237.734 230.668C241.184 231.582 246.202 232.043 252.797 232.043C259.392 232.043 265.685 231.449 271.672 230.231C277.658 229.013 296.647 221.961 328.609 209.075C344.59 202.631 360.566 196.174 376.547 189.731C376.547 194.246 376.547 198.778 376.547 203.293C376.547 212.324 376.03 219.212 375.016 223.981C374.001 228.75 372.835 232.656 371.516 235.7C370.197 238.744 368.866 241.295 367.547 243.325C366.228 245.354 364.928 247.17 363.609 248.793C362.29 250.417 360.067 252.695 356.922 255.637C353.776 258.58 350.927 260.912 348.391 262.637C345.854 264.362 343.412 265.826 341.078 267.043C338.744 268.261 335.026 269.779 329.953 271.606C324.88 273.432 318.234 274.982 310.016 276.2C301.797 277.417 291.41 278.364 278.828 279.075C266.246 279.785 254.012 280.004 242.141 279.7C230.269 279.395 219.718 278.769 210.484 277.856C201.251 276.943 194.77 276.129 191.016 275.418C187.261 274.708 184.224 274.004 181.891 273.293C179.557 272.583 177.005 271.66 174.266 270.543C171.526 269.427 168.732 268.128 165.891 266.606C163.05 265.084 160.42 263.456 157.984 261.731C155.549 260.006 153.624 258.433 152.203 257.012C150.783 255.592 150.078 246.316 150.078 229.168C150.078 212.021 145.765 201.712 137.141 198.262C128.516 194.812 124.094 193.129 123.891 193.231C123.688 193.332 123.578 197.293 123.578 205.106C123.578 212.919 123.93 218.86 124.641 222.918C125.351 226.977 126.736 231.533 128.766 236.606C130.795 241.679 132.775 245.64 134.703 248.481C136.631 251.322 138.447 253.709 140.172 255.637C141.897 257.565 142.711 282.464 142.609 330.356C142.508 378.248 142.696 403.718 143.203 406.762C143.71 409.806 144.689 412.71 146.109 415.45C147.53 418.189 148.861 420.17 150.078 421.387C151.296 422.605 152.595 423.661 154.016 424.575C155.436 425.488 157.526 426.357 160.266 427.168C163.005 427.98 175.294 428.442 197.109 428.543C218.925 428.645 230.016 429.921 230.422 432.356C230.828 434.791 231.399 437.069 232.109 439.2C232.82 441.33 233.767 443.553 234.984 445.887C236.202 448.221 237.423 450.201 238.641 451.825C239.858 453.448 241.432 455.209 243.359 457.137C245.287 459.065 247.134 460.638 248.859 461.856C250.584 463.073 252.643 464.295 255.078 465.512C257.513 466.73 259.713 467.653 261.641 468.262C263.568 468.871 265.846 469.388 268.484 469.793C271.123 470.199 281.102 470.387 298.453 470.387C315.804 470.387 325.541 470.254 327.672 469.95C329.803 469.645 332.112 469.129 334.547 468.418C336.982 467.708 339.15 466.894 341.078 465.981C343.006 465.068 345.096 463.846 347.328 462.325C349.56 460.803 351.564 459.12 353.391 457.293C355.217 455.467 356.955 453.463 358.578 451.231C360.202 448.999 361.587 446.69 362.703 444.356C363.819 442.022 364.821 438.797 365.734 434.637C366.648 430.477 367.109 427.166 367.109 424.731C367.109 422.296 366.835 419.666 366.328 416.825C365.821 413.984 365.226 411.541 364.516 409.512C363.805 407.483 362.827 405.338 361.609 403.106C360.392 400.874 359.038 398.815 357.516 396.887C355.994 394.959 354.178 393.034 352.047 391.106C349.916 389.178 347.991 387.66 346.266 386.543C344.541 385.427 342.396 384.284 339.859 383.168C337.323 382.052 334.395 381.16 331.047 380.45C327.698 379.739 316.819 379.387 298.453 379.387C280.088 379.387 269.239 379.739 265.891 380.45C262.542 381.16 258.934 382.459 255.078 384.387C251.222 386.315 248.592 387.865 247.172 388.981C245.751 390.097 244.178 391.561 242.453 393.387C240.728 395.214 238.803 397.844 236.672 401.293C234.541 404.743 233.132 407.483 232.422 409.512C231.712 411.541 231.085 413.984 230.578 416.825C230.071 419.666 219.332 421.075 198.328 421.075C177.325 421.075 165.498 420.722 162.859 420.012C160.221 419.302 158.131 418.355 156.609 417.137C155.087 415.92 153.812 414.37 152.797 412.543C151.782 410.717 151.078 408.901 150.672 407.075C150.266 405.248 150.078 381.297 150.078 335.231C150.078 289.165 150.266 266.082 150.672 265.981C151.078 265.879 152.354 266.639 154.484 268.262C156.615 269.886 159.41 271.623 162.859 273.45C166.309 275.276 170.622 277.092 175.797 278.918C180.972 280.745 185.692 282.075 189.953 282.887C194.215 283.699 200.453 284.513 208.672 285.325C216.891 286.136 223.481 286.676 228.453 286.981C233.425 287.285 241.808 287.45 253.578 287.45C265.348 287.45 274.459 287.23 280.953 286.825C287.447 286.419 295.368 285.659 304.703 284.543C314.038 283.427 321.333 282.128 326.609 280.606C331.886 279.084 336.879 277.213 341.547 274.981C346.214 272.749 350.606 270.087 354.766 267.043C358.926 263.999 362.777 260.501 366.328 256.543C369.879 252.586 372.783 248.68 375.016 244.825C377.248 240.969 378.876 237.689 379.891 234.95C380.905 232.21 381.829 228.79 382.641 224.731C383.452 220.672 383.883 212.023 383.984 198.731C384.086 185.439 384.008 178.739 383.703 178.637C383.399 178.536 382.827 178.614 382.016 178.918C381.204 179.223 363.819 186.33 329.828 200.231C295.837 214.132 276.198 221.646 270.922 222.762C265.646 223.878 260.057 224.504 254.172 224.606C248.287 224.707 244.084 224.488 241.547 223.981C239.01 223.474 233.993 221.712 226.484 218.668C218.976 215.624 212.33 212.83 206.547 210.293C200.763 207.757 171.685 195.82 119.328 174.512C66.9714 153.204 40.2803 142.301 39.2656 141.793C38.251 141.286 37.4369 140.691 36.8281 139.981C36.2193 139.271 36.0314 138.511 36.2344 137.7C36.4373 136.888 36.8679 136.074 37.5781 135.262C38.2884 134.45 40.0808 133.175 42.9219 131.45C45.7629 129.725 77.6045 116.379 138.484 91.4184C199.364 66.4576 231.887 53.4095 236.047 52.2934C240.207 51.1772 244.277 50.3632 248.234 49.8559C252.192 49.3485 256.043 49.1059 259.797 49.1059C263.551 49.1059 267.105 49.4581 270.453 50.1684C273.802 50.8786 307.897 64.5216 372.734 91.1059C437.571 117.69 470.556 131.255 471.672 131.762C472.788 132.269 473.735 132.864 474.547 133.575C475.359 134.285 475.82 134.935 475.922 135.543C476.023 136.152 475.914 136.778 475.609 137.387C475.305 137.996 474.71 138.755 473.797 139.668C472.884 140.582 471.662 141.474 470.141 142.387C468.619 143.3 462.192 145.907 450.828 150.168C439.464 154.43 433.766 180.902 433.766 229.606C433.766 278.31 433.82 302.778 433.922 302.981C434.023 303.184 435.244 303.262 437.578 303.262C438.745 303.262 439.911 303.262 441.078 303.262C441.129 279.671 441.184 256.103 441.234 232.512C441.336 185.33 445.703 160.158 454.328 157.012C462.953 153.867 468.839 151.425 471.984 149.7C475.13 147.975 477.462 146.347 478.984 144.825C480.506 143.303 481.618 141.784 482.328 140.262C483.038 138.74 483.391 137.276 483.391 135.856C483.391 134.435 483.093 133.081 482.484 131.762C481.876 130.443 481.116 129.3 480.203 128.387C479.29 127.474 477.716 126.472 475.484 125.356C473.252 124.24 470.81 123.238 468.172 122.325C465.534 121.411 433.199 108.144 371.203 82.5746C309.207 57.005 276.552 43.8238 273.203 43.0121C269.855 42.2004 266.301 41.7386 262.547 41.6371ZM131.203 204.637C131.406 204.434 133.386 205.115 137.141 206.637C140.895 208.159 142.711 215.102 142.609 227.481C142.559 233.67 142.504 239.854 142.453 246.043C142.199 245.84 141.957 245.652 141.703 245.45C141.196 245.044 140.217 243.604 138.797 241.168C137.376 238.733 135.967 235.508 134.547 231.45C133.126 227.391 132.148 223.563 131.641 220.012C131.133 216.461 130.891 213.072 130.891 209.825C130.891 206.578 131 204.84 131.203 204.637ZM284.203 386.606C290.951 386.606 297.674 386.606 304.422 386.606C317.917 386.606 325.353 386.715 326.672 386.918C327.991 387.121 329.916 387.638 332.453 388.45C334.99 389.261 336.994 390.075 338.516 390.887C340.038 391.699 342.237 393.327 345.078 395.762C347.919 398.197 350.033 400.365 351.453 402.293C352.874 404.221 354.04 406.147 354.953 408.075C355.866 410.002 356.626 412.038 357.234 414.168C357.843 416.299 358.25 418.796 358.453 421.637C358.656 424.478 358.656 426.834 358.453 428.762C358.25 430.69 357.71 433.077 356.797 435.918C355.884 438.759 354.772 441.311 353.453 443.543C352.134 445.776 350.639 447.811 349.016 449.637C347.392 451.463 345.334 453.279 342.797 455.106C340.26 456.932 337.168 458.506 333.516 459.825C329.863 461.144 327.256 461.903 325.734 462.106C324.212 462.309 316.863 462.364 303.672 462.262C297.077 462.211 290.486 462.157 283.891 462.106C283.941 449.524 283.996 436.938 284.047 424.356C284.098 411.774 284.152 399.188 284.203 386.606ZM274.422 387.137C276.553 387.239 277.609 392.882 277.609 404.043C277.609 409.624 277.609 415.181 277.609 420.762C270.963 420.813 264.318 420.868 257.672 420.918C251.026 420.969 244.38 421.024 237.734 421.075C237.734 420.517 237.734 419.976 237.734 419.418C237.734 418.302 238.087 416.51 238.797 414.075C239.507 411.639 240.266 409.604 241.078 407.981C241.89 406.357 242.947 404.651 244.266 402.825C245.585 400.998 246.97 399.37 248.391 397.95C249.811 396.529 251.627 395.065 253.859 393.543C256.092 392.021 258.127 390.855 259.953 390.043C261.78 389.232 264.112 388.496 266.953 387.887C269.794 387.278 272.291 387.036 274.422 387.137ZM237.734 428.7C244.33 428.7 250.92 428.7 257.516 428.7C264.111 428.7 270.702 428.7 277.297 428.7C277.348 434.331 277.402 439.943 277.453 445.575C277.504 451.206 277.559 456.849 277.609 462.481C276.341 462.481 275.065 462.481 273.797 462.481C271.26 462.481 268.575 462.129 265.734 461.418C262.893 460.708 260.451 459.839 258.422 458.825C256.393 457.81 254.412 456.589 252.484 455.168C250.557 453.748 248.741 452.065 247.016 450.137C245.291 448.209 243.772 446.151 242.453 443.918C241.134 441.686 240.023 439.134 239.109 436.293C238.196 433.452 237.734 431.472 237.734 430.356C237.734 429.798 237.734 429.258 237.734 428.7Z" fill="#000000" fill-rule="evenodd" opacity="1" stroke="#ffffff" stroke-linecap="round" stroke-linejoin="round" stroke-width="1"/>
</g>
</g>
</svg>
